# xmcd
#
# Track frame offsets:
#	150
#	18489
#	36244
#	50372
#	66920
#	84319
#	103955
#	118983
#	135860
#	150469
#	163159
#	180195
#	199141
#	214720
#	230673
#	245801
#	264590
#	284453
#	299207
#	314404
#
# Disc length: 4423 seconds
#
# Revision: 1
# Processed by: cddbd v1.5.1PL0 Copyright (c) Steve Scherf et al.
# Submitted via: audiograbber 1.83.01
#
DISCID=30114514
DTITLE=Promo Only - Hitz Radio 30
DYEAR=1900
DGENRE=
TTITLE0=Laura Pausini - Surrender
TTITLE1=Christina Aguiera/Redman - Dirrty
TTITLE2=Nick Carter - Help Me
TTITLE3=Our Lady Peace - Innocent
TTITLE4=Cam'ron - Hey Ma
TTITLE5=Sam Roberts - Brother Down
TTITLE6=Shaggy - Sexy Lady
TTITLE7=John Mayer - Your Body Is A Wonderland
TTITLE8=Swollen Members - Steppin Thru
TTITLE9=Not By Choice - Standing All Alone
TTITLE10=Kelly Clarkson - A Moment Like This
TTITLE11=Santana/michelle Branch - Game Of Love
TTITLE12=Puddle Of Mudd - She Hates Me
TTITLE13=Shawn Desman - Get Ready
TTITLE14=Wave - That's How It Feels
TTITLE15=Phil Collins - Can't Stop Loving You
TTITLE16=Missy Elliot - Work It
TTITLE17=Simple Plan - I'd Do AnythingTrack 18
TTITLE18=Blue Rodeo - Bulletproof
TTITLE19=Keith Urban - Somebody Like You
EXTD=
EXTT0=
EXTT1=
EXTT2=
EXTT3=
EXTT4=
EXTT5=
EXTT6=
EXTT7=
EXTT8=
EXTT9=
EXTT10=
EXTT11=
EXTT12=
EXTT13=
EXTT14=
EXTT15=
EXTT16=
EXTT17=
EXTT18=
EXTT19=
PLAYORDER=
